<?xml version="1.0" encoding="UTF-8" standalone="no"?>
<!DOCTYPE svg PUBLIC "-//W3C//DTD SVG 1.1//EN" "http://www.w3.org/Graphics/SVG/1.1/DTD/svg11.dtd">
<svg width="100%" height="100%" viewBox="0 0 192 192" version="1.1" xmlns="http://www.w3.org/2000/svg" xmlns:xlink="http://www.w3.org/1999/xlink" xml:space="preserve" xmlns:serif="http://www.serif.com/" style="fill-rule:evenodd;clip-rule:evenodd;stroke-linejoin:round;stroke-miterlimit:2;">
    <g id="Artboard3" transform="matrix(1,0,0,1,225.033724,0)">
        <rect x="-225.034" y="0" width="191.85" height="192" style="fill:none;"/>
        <g transform="matrix(1.894041,0,0,1.894041,-415.775291,-96.050516)">
            <g transform="matrix(17.916667,0,0,17.916667,110.183407,123.640052)">
                <path d="M0.494,-0.38C0.555,-0.41 0.594,-0.466 0.594,-0.546C0.594,-0.67 0.497,-0.75 0.378,-0.75L0.083,-0.75L0.083,-0L0.405,-0C0.524,-0 0.619,-0.077 0.619,-0.201C0.619,-0.292 0.568,-0.352 0.494,-0.38ZM0.471,-0.534C0.471,-0.475 0.422,-0.429 0.364,-0.429L0.204,-0.429L0.204,-0.636L0.364,-0.636C0.422,-0.636 0.471,-0.594 0.471,-0.534ZM0.388,-0.114L0.204,-0.114L0.204,-0.321L0.388,-0.321C0.448,-0.321 0.496,-0.275 0.496,-0.216C0.496,-0.158 0.448,-0.114 0.388,-0.114Z" style="fill-rule:nonzero;"/>
            </g>
            <g transform="matrix(17.916667,0,0,17.916667,122.120386,123.640052)">
                <path d="M0.537,-0L0.67,-0L0.399,-0.75L0.263,-0.75L-0.009,-0L0.124,-0L0.177,-0.159L0.484,-0.159L0.537,-0ZM0.214,-0.266L0.331,-0.616L0.449,-0.266L0.214,-0.266Z" style="fill-rule:nonzero;"/>
            </g>
            <g transform="matrix(17.916667,0,0,17.916667,133.967782,123.640052)">
                <path d="M0.621,-0.75L0.621,-0.194L0.205,-0.75L0.083,-0.75L0.083,-0L0.205,-0L0.205,-0.557L0.62,-0L0.743,-0L0.743,-0.75L0.621,-0.75Z" style="fill-rule:nonzero;"/>
            </g>
            <g transform="matrix(17.916667,0,0,17.916667,148.749032,123.640052)">
                <path d="M0.54,-0L0.706,-0L0.349,-0.41L0.681,-0.75L0.52,-0.75L0.247,-0.464L0.205,-0.464L0.205,-0.75L0.083,-0.75L0.083,-0L0.205,-0L0.205,-0.354L0.245,-0.354L0.54,-0Z" style="fill-rule:nonzero;"/>
            </g>
            <g transform="matrix(17.916667,0,0,17.916667,166.464136,123.640052)">
                <path d="M0.439,0.01C0.651,0.01 0.824,-0.163 0.824,-0.375C0.824,-0.588 0.651,-0.76 0.439,-0.76C0.226,-0.76 0.054,-0.588 0.054,-0.375C0.054,-0.163 0.226,0.01 0.439,0.01ZM0.439,-0.111C0.291,-0.111 0.175,-0.226 0.175,-0.375C0.175,-0.524 0.291,-0.639 0.439,-0.639C0.588,-0.639 0.703,-0.524 0.703,-0.375C0.703,-0.226 0.588,-0.111 0.439,-0.111Z" style="fill-rule:nonzero;"/>
            </g>
            <g transform="matrix(17.916667,0,0,17.916667,182.186011,123.640052)">
                <path d="M0.519,-0.639L0.519,-0.75L0.089,-0.75L0.089,-0L0.211,-0L0.211,-0.319L0.478,-0.319L0.478,-0.431L0.211,-0.431L0.211,-0.639L0.519,-0.639Z" style="fill-rule:nonzero;"/>
            </g>
            <g transform="matrix(17.916667,0,0,17.916667,118.178719,139.765052)">
                <path d="M0.564,-0.75L0.564,-0.432L0.205,-0.432L0.205,-0.75L0.083,-0.75L0.083,-0L0.205,-0L0.205,-0.319L0.564,-0.319L0.564,-0L0.686,-0L0.686,-0.75L0.564,-0.75Z" style="fill-rule:nonzero;"/>
            </g>
            <g transform="matrix(17.916667,0,0,17.916667,131.952157,139.765052)">
                <path d="M0.639,-0.75L0.497,-0.75L0.316,-0.468L0.136,-0.75L-0.007,-0.75L0.255,-0.352L0.255,-0L0.378,-0L0.378,-0.355L0.639,-0.75Z" style="fill-rule:nonzero;"/>
            </g>
            <g transform="matrix(17.916667,0,0,17.916667,143.262052,139.765052)">
                <path d="M0.083,-0L0.307,-0C0.515,-0 0.682,-0.168 0.682,-0.375C0.682,-0.583 0.515,-0.75 0.307,-0.75L0.083,-0.75L0.083,-0ZM0.204,-0.114L0.204,-0.636L0.307,-0.636C0.45,-0.636 0.561,-0.525 0.561,-0.375C0.561,-0.225 0.45,-0.114 0.307,-0.114L0.204,-0.114Z" style="fill-rule:nonzero;"/>
            </g>
            <g transform="matrix(17.916667,0,0,17.916667,156.453198,139.765052)">
                <path d="M0.43,-0.326C0.524,-0.346 0.593,-0.429 0.593,-0.53C0.593,-0.652 0.497,-0.75 0.376,-0.75L0.083,-0.75L0.083,-0L0.205,-0L0.205,-0.315L0.309,-0.315L0.508,-0L0.645,-0L0.43,-0.326ZM0.205,-0.421L0.205,-0.636L0.361,-0.636C0.425,-0.636 0.473,-0.593 0.473,-0.529C0.473,-0.465 0.425,-0.421 0.361,-0.421L0.205,-0.421Z" style="fill-rule:nonzero;"/>
            </g>
            <g transform="matrix(17.916667,0,0,17.916667,168.05424,139.765052)">
                <path d="M0.439,0.01C0.651,0.01 0.824,-0.163 0.824,-0.375C0.824,-0.588 0.651,-0.76 0.439,-0.76C0.226,-0.76 0.054,-0.588 0.054,-0.375C0.054,-0.163 0.226,0.01 0.439,0.01ZM0.439,-0.111C0.291,-0.111 0.175,-0.226 0.175,-0.375C0.175,-0.524 0.291,-0.639 0.439,-0.639C0.588,-0.639 0.703,-0.524 0.703,-0.375C0.703,-0.226 0.588,-0.111 0.439,-0.111Z" style="fill-rule:nonzero;"/>
            </g>
        </g>
        <g transform="matrix(0.122959,0,0,0.122959,-401.946647,-107.147516)">
            <path d="M1613.48,1706.781L1966.254,1689.567L1960.47,1644.843L1773.961,1607.175L1779.606,1553.497L1970.489,1604.214L1993.834,1562.381L1814.312,1463.979C1820.563,1447.556 1832.256,1430.226 1850.637,1411.781L2012.529,1532.118L2044.412,1497.343L1909.753,1348.362C1919.835,1330.88 1934.565,1316.187 1954.755,1304.771L2074.64,1473.342L2115.166,1443.595L2031.155,1258.566C2050.999,1245.545 2070.843,1238.271 2090.687,1235.359L2151.458,1435.02L2197.558,1432.304L2189.02,1218.006L2241.079,1215.114L2235.772,1431.072L2282.187,1436.098L2342.305,1235.359C2364.668,1237.998 2383.85,1244.878 2400.148,1255.604L2317.651,1448.902L2358.282,1475.072L2481.869,1307.154C2502.565,1318.517 2516.787,1331.729 2523.331,1347.135L2388.579,1493.733L2416.714,1530.753L2589.966,1419.694C2602.507,1434.995 2610.686,1450.297 2615.14,1465.598L2438.926,1560.369L2452.253,1604.792L2650.678,1558.888C2656.687,1575.699 2659.619,1591.484 2659.563,1606.273L2465.58,1641.812L2467.061,1692.158L2834.296,1704.005C2816.029,1665.258 2808.252,1623.89 2806.161,1581.1L2686.217,1598.869C2684.872,1585.252 2681.24,1568.205 2675.852,1548.522L2810.603,1514.464C2779.016,1478.869 2758.839,1438.203 2745.449,1394.52L2638.003,1452.307C2631.793,1437.27 2622.901,1422.233 2610.626,1407.196L2726.198,1329.366C2692.11,1306.87 2659.052,1277.167 2626.986,1240.519L2544.784,1323.549C2534.861,1311.668 2520.61,1299.786 2502.6,1287.904L2581.081,1182.768C2538.085,1169.081 2497.129,1150.294 2458.176,1126.498L2406.349,1232.463C2388.127,1222.719 2368.841,1216.169 2348.598,1212.49L2385.618,1079.113C2340.207,1087.825 2294.796,1086.576 2249.385,1079.113L2244.185,1191.001L2187.192,1190.172L2175.346,1058.382C2137.997,1076.315 2095.714,1089.315 2046.518,1095.402L2083.537,1204.98C2059.689,1211.365 2041.007,1218.784 2027.267,1227.192L1970.998,1107.248C1939.482,1143.467 1903.794,1169.254 1864.381,1185.73L1933.978,1281.981C1916.635,1290.765 1901.373,1302.67 1888.074,1317.52L1794.784,1216.826C1776.911,1261.081 1752.23,1299.663 1722.226,1333.808L1821.438,1397.482C1806.437,1412.745 1796.715,1429.063 1791.822,1446.348L1668.811,1380.542C1660.497,1422.368 1654.78,1461.184 1636.34,1507.06L1751.841,1541.118L1742.957,1601.831L1600.801,1576.657L1611.071,1645.311L1613.48,1706.781Z" style="fill:rgb(113,163,114);"/>
        </g>
    </g>
</svg>
