<?xml version="1.0" encoding="UTF-8"?>
<svg id="Icons" xmlns="http://www.w3.org/2000/svg" viewBox="0 0 192 192">
  <defs>
    <style>
      .cls-1 {
        fill: #fff;
        isolation: isolate;
      }

      .cls-2 {
        fill: #71a372;
        fill-rule: evenodd;
      }
    </style>
  </defs>
  <g id="Done">
    <g id="Layer_197" data-name="Layer 197">
      <g id="bank_of_hydro" data-name="bank of hydro">
        <rect class="cls-1" x="8" y="32" width="176" height="128" rx="10" ry="10"/>
        <path class="cls-2" d="M34.58,128.23l37.6-2.07-.15-4.37-20.08-3.88.57-5.38,21.06,5.62,1.37-4.3-18.95-10.29c.63-1.65,1.8-3.38,3.64-5.23l17.51,12.92,3.09-3.38-14.67-15.89c1.01-1.75,2.49-3.22,4.51-4.37l12.76,18.07,3.85-2.23-8.95-20.47c1.99-1.3,3.98-2.03,5.96-2.33l6.3,21.51,4.08-.06-.53-23.19,5.22-.29-.21,23.14,3.9.4,6.45-21.51c2.24.26,4.16.95,5.8,2.03l-9.23,20.66,3.86,2.09,13.56-17.58c2.07,1.14,3.5,2.46,4.15,4.01l-14.36,15.98,2.71,2.96,18.33-11.66c1.26,1.53,2.08,3.07,2.52,4.6l-18.73,10.46,1.76,3.91,20.53-5.03c.6,1.68.9,3.27.89,4.75l-20.62,3.88.26,4.29,37.1,1.7c-2.37-3.88-1.29-8.24-.89-12.53l-13.18,1.91c-.13-1.36-.5-3.07-1.04-5.04l12.81-3.33c-3.92-3.41-4.21-8.02-4.88-12.53l-11.73,6.22c-.62-1.51-1.51-3.01-2.74-4.52l10.89-7.37c-4.31-1.48-6.59-4.95-8.7-9.57l-8.79,8.56c-.99-1.19-2.42-2.38-4.23-3.57l7.35-9.93c-4.44-.3-7.75-3.5-11.5-7.1l-5.49,11.48c-1.83-.98-3.76-1.63-5.79-2l3.19-12.33c-4.82,1.28-9.1-1.06-13.35-2.25l-.31,12.43-5.71-.08-1.02-12.35c-3.46,2.36-8.08,1.85-13.29,1.88l3.92,11.95c-2.39.64-4.26,1.38-5.64,2.23l-5.64-12.02c-3.16,3.63-7.59,5.35-11.54,7.01l7.83,10.5c-1.74.88-3.27,2.07-4.6,3.56l-8.75-9.92c-.92,4.58-4.9,7.5-8.75,10.78l10.82,7.15c-1.5,1.53-2.48,3.16-2.97,4.9l-12.33-6.59c-.24,5.37-2.18,9.06-4.58,12.55l12.9,3.54-.89,6.08-13.44-2.52.09,6.69-.91,6.7Z"/>
      </g>
    </g>
  </g>
</svg>