<?xml version="1.0" encoding="UTF-8" standalone="no"?>
<!DOCTYPE svg PUBLIC "-//W3C//DTD SVG 1.1//EN" "http://www.w3.org/Graphics/SVG/1.1/DTD/svg11.dtd">
<svg width="100%" height="100%" viewBox="0 0 192 192" version="1.1" xmlns="http://www.w3.org/2000/svg" xmlns:xlink="http://www.w3.org/1999/xlink" xml:space="preserve" xmlns:serif="http://www.serif.com/" style="fill-rule:evenodd;clip-rule:evenodd;stroke-linejoin:round;stroke-miterlimit:2;">
    <g id="bank_of_hydro" transform="matrix(1,0,0,1,225.033724,0)">
        <rect x="-225.034" y="0" width="191.85" height="192" style="fill:none;"/>
        <g transform="matrix(1,0,0,1,-225.033724,0)">
            <path d="M171.609,35.549L171.609,156.761C171.609,165.254 164.714,172.149 156.221,172.149L35.319,172.149C26.827,172.149 19.932,165.254 19.932,156.761L19.932,35.549C19.932,27.056 26.827,20.162 35.319,20.162L156.221,20.162C164.714,20.162 171.609,27.056 171.609,35.549Z" style="fill:white;"/>
        </g>
        <g transform="matrix(1.543417,0,0,1.543417,-362.86746,-64.662802)">
            <g transform="matrix(17.916667,0,0,17.916667,110.183407,123.640052)">
                <path d="M0.494,-0.38C0.555,-0.41 0.594,-0.466 0.594,-0.546C0.594,-0.67 0.497,-0.75 0.378,-0.75L0.083,-0.75L0.083,-0L0.405,-0C0.524,-0 0.619,-0.077 0.619,-0.201C0.619,-0.292 0.568,-0.352 0.494,-0.38ZM0.471,-0.534C0.471,-0.475 0.422,-0.429 0.364,-0.429L0.204,-0.429L0.204,-0.636L0.364,-0.636C0.422,-0.636 0.471,-0.594 0.471,-0.534ZM0.388,-0.114L0.204,-0.114L0.204,-0.321L0.388,-0.321C0.448,-0.321 0.496,-0.275 0.496,-0.216C0.496,-0.158 0.448,-0.114 0.388,-0.114Z" style="fill:rgb(86,89,91);fill-rule:nonzero;stroke:rgb(86,89,91);stroke-width:0.04px;"/>
            </g>
            <g transform="matrix(17.916667,0,0,17.916667,122.120386,123.640052)">
                <path d="M0.537,-0L0.67,-0L0.399,-0.75L0.263,-0.75L-0.009,-0L0.124,-0L0.177,-0.159L0.484,-0.159L0.537,-0ZM0.214,-0.266L0.331,-0.616L0.449,-0.266L0.214,-0.266Z" style="fill:rgb(86,89,91);fill-rule:nonzero;stroke:rgb(86,89,91);stroke-width:0.04px;"/>
            </g>
            <g transform="matrix(17.916667,0,0,17.916667,133.967782,123.640052)">
                <path d="M0.621,-0.75L0.621,-0.194L0.205,-0.75L0.083,-0.75L0.083,-0L0.205,-0L0.205,-0.557L0.62,-0L0.743,-0L0.743,-0.75L0.621,-0.75Z" style="fill:rgb(86,89,91);fill-rule:nonzero;stroke:rgb(86,89,91);stroke-width:0.04px;"/>
            </g>
            <g transform="matrix(17.916667,0,0,17.916667,148.749032,123.640052)">
                <path d="M0.54,-0L0.706,-0L0.349,-0.41L0.681,-0.75L0.52,-0.75L0.247,-0.464L0.205,-0.464L0.205,-0.75L0.083,-0.75L0.083,-0L0.205,-0L0.205,-0.354L0.245,-0.354L0.54,-0Z" style="fill:rgb(86,89,91);fill-rule:nonzero;stroke:rgb(86,89,91);stroke-width:0.04px;"/>
            </g>
            <g transform="matrix(17.916667,0,0,17.916667,166.464136,123.640052)">
                <path d="M0.439,0.01C0.651,0.01 0.824,-0.163 0.824,-0.375C0.824,-0.588 0.651,-0.76 0.439,-0.76C0.226,-0.76 0.054,-0.588 0.054,-0.375C0.054,-0.163 0.226,0.01 0.439,0.01ZM0.439,-0.111C0.291,-0.111 0.175,-0.226 0.175,-0.375C0.175,-0.524 0.291,-0.639 0.439,-0.639C0.588,-0.639 0.703,-0.524 0.703,-0.375C0.703,-0.226 0.588,-0.111 0.439,-0.111Z" style="fill:rgb(86,89,91);fill-rule:nonzero;stroke:rgb(86,89,91);stroke-width:0.04px;"/>
            </g>
            <g transform="matrix(17.916667,0,0,17.916667,182.186011,123.640052)">
                <path d="M0.519,-0.639L0.519,-0.75L0.089,-0.75L0.089,-0L0.211,-0L0.211,-0.319L0.478,-0.319L0.478,-0.431L0.211,-0.431L0.211,-0.639L0.519,-0.639Z" style="fill:rgb(86,89,91);fill-rule:nonzero;stroke:rgb(86,89,91);stroke-width:0.04px;"/>
            </g>
            <g transform="matrix(17.916667,0,0,17.916667,118.178719,139.765052)">
                <path d="M0.564,-0.75L0.564,-0.432L0.205,-0.432L0.205,-0.75L0.083,-0.75L0.083,-0L0.205,-0L0.205,-0.319L0.564,-0.319L0.564,-0L0.686,-0L0.686,-0.75L0.564,-0.75Z" style="fill:rgb(86,89,91);fill-rule:nonzero;stroke:rgb(86,89,91);stroke-width:0.04px;"/>
            </g>
            <g transform="matrix(17.916667,0,0,17.916667,131.952157,139.765052)">
                <path d="M0.639,-0.75L0.497,-0.75L0.316,-0.468L0.136,-0.75L-0.007,-0.75L0.255,-0.352L0.255,-0L0.378,-0L0.378,-0.355L0.639,-0.75Z" style="fill:rgb(86,89,91);fill-rule:nonzero;stroke:rgb(86,89,91);stroke-width:0.04px;"/>
            </g>
            <g transform="matrix(17.916667,0,0,17.916667,143.262052,139.765052)">
                <path d="M0.083,-0L0.307,-0C0.515,-0 0.682,-0.168 0.682,-0.375C0.682,-0.583 0.515,-0.75 0.307,-0.75L0.083,-0.75L0.083,-0ZM0.204,-0.114L0.204,-0.636L0.307,-0.636C0.45,-0.636 0.561,-0.525 0.561,-0.375C0.561,-0.225 0.45,-0.114 0.307,-0.114L0.204,-0.114Z" style="fill:rgb(86,89,91);fill-rule:nonzero;stroke:rgb(86,89,91);stroke-width:0.04px;"/>
            </g>
            <g transform="matrix(17.916667,0,0,17.916667,156.453198,139.765052)">
                <path d="M0.43,-0.326C0.524,-0.346 0.593,-0.429 0.593,-0.53C0.593,-0.652 0.497,-0.75 0.376,-0.75L0.083,-0.75L0.083,-0L0.205,-0L0.205,-0.315L0.309,-0.315L0.508,-0L0.645,-0L0.43,-0.326ZM0.205,-0.421L0.205,-0.636L0.361,-0.636C0.425,-0.636 0.473,-0.593 0.473,-0.529C0.473,-0.465 0.425,-0.421 0.361,-0.421L0.205,-0.421Z" style="fill:rgb(86,89,91);fill-rule:nonzero;stroke:rgb(86,89,91);stroke-width:0.04px;"/>
            </g>
            <g transform="matrix(17.916667,0,0,17.916667,168.05424,139.765052)">
                <path d="M0.439,0.01C0.651,0.01 0.824,-0.163 0.824,-0.375C0.824,-0.588 0.651,-0.76 0.439,-0.76C0.226,-0.76 0.054,-0.588 0.054,-0.375C0.054,-0.163 0.226,0.01 0.439,0.01ZM0.439,-0.111C0.291,-0.111 0.175,-0.226 0.175,-0.375C0.175,-0.524 0.291,-0.639 0.439,-0.639C0.588,-0.639 0.703,-0.524 0.703,-0.375C0.703,-0.226 0.588,-0.111 0.439,-0.111Z" style="fill:rgb(86,89,91);fill-rule:nonzero;stroke:rgb(86,89,91);stroke-width:0.04px;"/>
            </g>
        </g>
        <g transform="matrix(0.100197,0,0,0.100197,-350.905424,-75.208288)">
            <path d="M1600.627,1710.262L1975.894,1689.567L1974.394,1645.914L1773.961,1607.175L1779.606,1553.497L1989.768,1609.569L2003.474,1566.666L1814.312,1463.979C1820.563,1447.556 1832.256,1430.226 1850.637,1411.781L2025.382,1540.687L2056.194,1506.982L1909.753,1348.362C1919.835,1330.88 1934.565,1316.187 1954.755,1304.771L2082.138,1485.124L2120.522,1462.875L2031.155,1258.566C2050.999,1245.545 2070.843,1238.271 2090.687,1235.359L2153.6,1450.015L2194.345,1449.441L2189.02,1218.006L2241.079,1215.114L2238.985,1446.067L2277.903,1450.022L2342.305,1235.359C2364.668,1237.998 2383.85,1244.878 2400.148,1255.604L2308.011,1461.755L2346.5,1482.569L2481.869,1307.154C2502.565,1318.517 2516.787,1331.729 2523.331,1347.135L2380.01,1506.586L2407.074,1536.108L2589.966,1419.694C2602.507,1434.995 2610.686,1450.297 2615.14,1465.598L2428.215,1570.008L2445.826,1609.077L2650.678,1558.888C2656.687,1575.699 2659.619,1591.484 2659.563,1606.273L2453.798,1645.025L2456.35,1687.874L2826.584,1704.862C2802.969,1666.115 2813.743,1622.604 2817.729,1579.814L2686.217,1598.869C2684.872,1585.252 2681.24,1568.205 2675.852,1548.522L2803.748,1515.321C2764.582,1481.242 2761.777,1435.259 2755.089,1390.236L2638.003,1452.307C2631.793,1437.27 2622.901,1422.233 2610.626,1407.196L2719.343,1333.65C2676.296,1318.834 2653.585,1284.27 2632.556,1238.162L2544.784,1323.549C2534.861,1311.668 2520.61,1299.786 2502.6,1287.904L2575.94,1188.766C2531.603,1185.805 2498.612,1153.85 2461.175,1117.929L2406.349,1232.463C2388.127,1222.719 2368.841,1216.169 2348.598,1212.49L2380.476,1089.396C2332.328,1102.214 2289.679,1078.828 2247.243,1066.902L2244.185,1191.001L2187.192,1190.172L2177.06,1066.951C2142.535,1090.533 2096.46,1085.452 2044.375,1085.762L2083.537,1204.98C2059.689,1211.365 2041.007,1218.784 2027.267,1227.192L1970.998,1107.248C1939.482,1143.467 1895.225,1160.685 1855.812,1177.161L1933.978,1281.981C1916.635,1290.765 1901.373,1302.67 1888.074,1317.52L1800.782,1218.54C1791.634,1264.249 1751.859,1293.353 1713.442,1326.096L1821.438,1397.482C1806.437,1412.745 1796.715,1429.063 1791.822,1446.348L1668.811,1380.542C1666.384,1434.142 1647.037,1470.974 1623.058,1505.775L1751.841,1541.118L1742.957,1601.831L1608.834,1576.657L1609.732,1643.436L1600.627,1710.262Z" style="fill:rgb(113,163,114);"/>
        </g>
    </g>
</svg>
