<?xml version="1.0" encoding="UTF-8" standalone="no"?>
<!DOCTYPE svg PUBLIC "-//W3C//DTD SVG 1.1//EN" "http://www.w3.org/Graphics/SVG/1.1/DTD/svg11.dtd">
<svg width="100%" height="100%" viewBox="0 0 192 192" version="1.1" xmlns="http://www.w3.org/2000/svg" xmlns:xlink="http://www.w3.org/1999/xlink" xml:space="preserve" xmlns:serif="http://www.serif.com/" style="fill-rule:evenodd;clip-rule:evenodd;stroke-linejoin:round;stroke-miterlimit:2;">
    <rect id="hyundai_bluelink_alt_1" x="0" y="0" width="192" height="192" style="fill:none;"/>
    <g id="hyundai_bluelink_alt_11" serif:id="hyundai_bluelink_alt_1">
        <path d="M172,35.42L172,156.58C172,165.09 165.09,172 156.58,172L35.42,172C26.91,172 20,165.09 20,156.58L20,35.42C20,26.91 26.91,20 35.42,20L156.58,20C165.09,20 172,26.91 172,35.42Z" style="fill:rgb(114,141,190);"/>
        <g id="path830" transform="matrix(1.10799,0,0,1.10799,44.046719,43.051537)">
            <path d="M56.707,29.416C57.421,33.106 55.487,36.171 53.88,39.146C52.095,41.914 49.149,44.293 45.608,43.937C37.662,43.818 29.896,42.598 22.694,40.425C22.367,40.336 22.04,40.127 21.861,39.83C21.712,39.413 21.921,39.026 22.218,38.759C28.795,33.432 36.621,30.963 44.358,28.373C47.244,27.54 50.31,26.647 53.553,27.064C54.891,27.243 56.23,28.166 56.707,29.416ZM83.816,13.645C87.506,16.68 90.839,20.817 89.708,25.816C87.863,33.196 79.829,37.124 73.431,39.623C69.949,40.784 66.438,41.975 62.629,42.332C62.391,42.302 62.004,42.361 61.944,42.004L62.033,41.588C67.449,35.487 71.555,28.644 75.157,21.71C76.823,18.585 78.371,15.372 79.799,12.217C80.007,11.979 80.216,11.86 80.454,11.771C81.792,11.889 82.745,12.931 83.816,13.645ZM31.888,5.789L31.769,6.235C23.943,15.132 18.795,25.458 13.915,35.724C12.963,36.617 12.04,35.426 11.177,35.039C6.832,32.183 2.904,27.57 4.035,22.095C5.85,14.954 13.2,11.145 19.331,8.557C22.961,7.188 26.741,6.087 30.728,5.462C31.145,5.461 31.68,5.402 31.888,5.789ZM70.723,7.217C71.169,7.455 71.705,7.544 71.973,7.99C72.211,8.496 71.735,8.823 71.467,9.151C65.307,13.971 58.255,16.65 51.053,19.001C47.392,19.894 43.702,21.501 39.626,20.608C38.673,20.37 37.811,19.745 37.275,18.822C36.263,16.025 37.632,13.109 38.822,10.669C40.399,7.604 43.197,4.003 47.065,3.944C55.397,3.884 63.253,5.134 70.723,7.217ZM81.019,7.455C87.328,10.907 94.47,16.977 93.726,25.071C92.863,32.57 85.87,37.807 79.621,40.962C61.379,49.681 35.758,49.948 16.921,42.331C10.552,39.683 3.41,35.13 0.731,28.285C-1.322,22.661 1.177,16.799 5.374,12.901C14.152,4.926 25.341,2.189 36.858,0.611C49.357,-0.907 62.509,0.432 73.698,4.271C76.198,5.194 78.668,6.206 81.019,7.455Z" style="fill:white;"/>
        </g>
        <g transform="matrix(1,0,0,1,-38.528184,16.344638)">
            <g transform="matrix(33.333333,0,-2.916289,33.333333,70.236611,119.655362)">
                <path d="M0.494,-0.38C0.555,-0.41 0.594,-0.466 0.594,-0.546C0.594,-0.67 0.497,-0.75 0.378,-0.75L0.083,-0.75L0.083,-0L0.405,-0C0.524,-0 0.619,-0.077 0.619,-0.201C0.619,-0.292 0.568,-0.352 0.494,-0.38ZM0.471,-0.534C0.471,-0.475 0.422,-0.429 0.364,-0.429L0.204,-0.429L0.204,-0.636L0.364,-0.636C0.422,-0.636 0.471,-0.594 0.471,-0.534ZM0.388,-0.114L0.204,-0.114L0.204,-0.321L0.388,-0.321C0.448,-0.321 0.496,-0.275 0.496,-0.216C0.496,-0.158 0.448,-0.114 0.388,-0.114Z" style="fill:white;fill-rule:nonzero;"/>
            </g>
            <g transform="matrix(33.333333,0,-2.916289,33.333333,92.444945,119.655362)">
                <rect x="0.083" y="-0.89" width="0.119" height="0.89" style="fill:white;fill-rule:nonzero;"/>
            </g>
            <g transform="matrix(33.333333,0,-2.916289,33.333333,101.903278,119.655362)">
                <path d="M0.279,0.01C0.41,0.01 0.489,-0.065 0.489,-0.185L0.489,-0.5L0.371,-0.5L0.371,-0.2C0.371,-0.139 0.333,-0.1 0.279,-0.1C0.225,-0.1 0.186,-0.139 0.186,-0.2L0.186,-0.5L0.069,-0.5L0.069,-0.185C0.069,-0.065 0.147,0.01 0.279,0.01Z" style="fill:white;fill-rule:nonzero;"/>
            </g>
            <g transform="matrix(33.333333,0,-2.916289,33.333333,120.486611,119.655362)">
                <path d="M0.579,-0.253C0.576,-0.403 0.466,-0.51 0.315,-0.51C0.163,-0.51 0.048,-0.4 0.048,-0.25C0.048,-0.1 0.161,0.01 0.316,0.01C0.445,0.01 0.541,-0.066 0.57,-0.175L0.451,-0.175C0.43,-0.122 0.38,-0.089 0.316,-0.089C0.233,-0.089 0.174,-0.147 0.168,-0.231L0.578,-0.231L0.579,-0.253ZM0.316,-0.41C0.381,-0.41 0.427,-0.374 0.449,-0.316L0.177,-0.316C0.2,-0.372 0.249,-0.41 0.316,-0.41Z" style="fill:white;fill-rule:nonzero;"/>
            </g>
            <g transform="matrix(33.333333,0,-2.916289,33.333333,141.236611,119.655362)">
                <rect x="0.091" y="-0.92" width="0.078" height="0.92" style="fill:white;fill-rule:nonzero;"/>
            </g>
            <g transform="matrix(33.333333,0,-2.916289,33.333333,149.903278,119.655362)">
                <path d="M0.14,-0.594C0.169,-0.594 0.194,-0.618 0.194,-0.646C0.194,-0.677 0.169,-0.7 0.14,-0.7C0.11,-0.7 0.085,-0.677 0.085,-0.646C0.085,-0.618 0.11,-0.594 0.14,-0.594ZM0.101,-0L0.179,-0L0.179,-0.5L0.101,-0.5L0.101,-0Z" style="fill:white;fill-rule:nonzero;"/>
            </g>
            <g transform="matrix(33.333333,0,-2.916289,33.333333,159.194945,119.655362)">
                <path d="M0.29,-0.51C0.244,-0.51 0.201,-0.491 0.169,-0.46L0.169,-0.5L0.091,-0.5L0.091,-0L0.169,-0L0.169,-0.319C0.169,-0.383 0.22,-0.432 0.284,-0.432C0.348,-0.432 0.398,-0.383 0.398,-0.319L0.398,-0L0.475,-0L0.475,-0.319C0.475,-0.425 0.386,-0.51 0.29,-0.51Z" style="fill:white;fill-rule:nonzero;"/>
            </g>
            <g transform="matrix(33.333333,0,-2.916289,33.333333,177.861611,119.655362)">
                <path d="M0.529,-0L0.275,-0.278L0.508,-0.5L0.404,-0.5L0.176,-0.281L0.176,-0.92L0.099,-0.92L0.099,-0L0.176,-0L0.176,-0.279L0.422,-0L0.529,-0Z" style="fill:white;fill-rule:nonzero;"/>
            </g>
        </g>
    </g>
</svg>
