<?xml version="1.0" encoding="UTF-8" standalone="no"?>
<!DOCTYPE svg PUBLIC "-//W3C//DTD SVG 1.1//EN" "http://www.w3.org/Graphics/SVG/1.1/DTD/svg11.dtd">
<svg width="100%" height="100%" viewBox="0 0 192 192" version="1.1" xmlns="http://www.w3.org/2000/svg" xmlns:xlink="http://www.w3.org/1999/xlink" xml:space="preserve" xmlns:serif="http://www.serif.com/" style="fill-rule:evenodd;clip-rule:evenodd;stroke-linejoin:round;stroke-miterlimit:2;">
    <rect id="Artboard1" x="0" y="0" width="192" height="192" style="fill:none;"/>
    <g id="Artboard11" serif:id="Artboard1">
        <path d="M172,64.116L172,127.884C172,132.363 168.363,136 163.884,136C118.638,148.755 73.369,123.448 28.116,136C23.637,136 20,132.363 20,127.884L20,64.116C20,59.637 23.637,56 28.116,56C73.762,38.868 120.11,69.39 163.884,56C168.363,56 172,59.637 172,64.116Z" style="fill:rgb(152,220,154);"/>
        <g transform="matrix(1,0.000236,-0.000236,1,-74.352845,27.921372)">
            <g transform="matrix(41.666667,0,-3.645361,41.666667,96.620355,82.817447)">
                <path d="M0.613,-0.75L0.613,-0.254L0.244,-0.75L0.074,-0.75L0.074,-0L0.239,-0L0.239,-0.497L0.606,-0L0.776,-0L0.776,-0.75L0.613,-0.75Z" style="fill:white;fill-rule:nonzero;"/>
            </g>
            <g transform="matrix(41.666667,0,-3.645361,41.666667,132.089105,82.817447)">
                <path d="M0.531,-0.605L0.531,-0.75L0.08,-0.75L0.08,-0L0.531,-0L0.531,-0.145L0.245,-0.145L0.245,-0.302L0.49,-0.302L0.49,-0.448L0.245,-0.448L0.245,-0.605L0.531,-0.605Z" style="fill:white;fill-rule:nonzero;"/>
            </g>
            <g transform="matrix(41.666667,0,-3.645361,41.666667,156.359939,82.817447)">
                <path d="M0.239,-0.146L0.239,-0.75L0.074,-0.75L0.074,-0L0.487,-0L0.487,-0.146L0.239,-0.146Z" style="fill:white;fill-rule:nonzero;"/>
            </g>
            <g transform="matrix(41.666667,0,-3.645361,41.666667,176.776605,82.817447)">
                <path d="M0.542,-0L0.763,-0L0.401,-0.416L0.725,-0.75L0.512,-0.75L0.268,-0.485L0.239,-0.485L0.239,-0.75L0.074,-0.75L0.074,-0L0.239,-0L0.239,-0.343L0.263,-0.343L0.542,-0Z" style="fill:white;fill-rule:nonzero;"/>
            </g>
            <g transform="matrix(41.666667,0,-3.645361,41.666667,207.037022,82.817447)">
                <path d="M0.431,0.01C0.645,0.01 0.816,-0.163 0.816,-0.375C0.816,-0.588 0.645,-0.76 0.431,-0.76C0.219,-0.76 0.046,-0.588 0.046,-0.375C0.046,-0.163 0.219,0.01 0.431,0.01ZM0.431,-0.151C0.305,-0.151 0.209,-0.249 0.209,-0.375C0.209,-0.501 0.305,-0.599 0.431,-0.599C0.559,-0.599 0.655,-0.501 0.655,-0.375C0.655,-0.249 0.559,-0.151 0.431,-0.151Z" style="fill:white;fill-rule:nonzero;"/>
            </g>
        </g>
    </g>
</svg>
